<?xml version="1.0" standalone="no"?>
<!DOCTYPE svg PUBLIC "-//W3C//DTD SVG 20010904//EN"
 "http://www.w3.org/TR/2001/REC-SVG-20010904/DTD/svg10.dtd">
<svg version="1.0" xmlns="http://www.w3.org/2000/svg"
 width="512.000000pt" height="512.000000pt" viewBox="0 0 512.000000 512.000000"
 preserveAspectRatio="xMidYMid meet">

<g transform="translate(0.000000,512.000000) scale(0.100000,-0.100000)"
fill="#000000" stroke="none">
<path d="M1264 4867 c-21 -18 -27 -35 -33 -82 l-6 -60 -575 -63 c-316 -34
-587 -67 -602 -73 -60 -24 -65 13 116 -1000 92 -512 166 -932 164 -933 -62
-28 -86 -46 -101 -78 -18 -37 -17 -54 58 -1130 84 -1188 78 -1142 144 -1185
l34 -23 2118 0 c1294 0 2127 4 2142 9 36 14 76 61 82 96 11 61 156 2612 152
2660 -4 43 -10 54 -47 87 l-42 37 126 716 c69 394 126 725 126 736 0 37 -41
65 -106 72 -62 7 -503 47 -804 72 -284 24 -270 21 -270 60 0 46 -17 81 -47 94
-17 8 -390 11 -1313 11 l-1289 0 -27 -23z m2506 -941 l0 -795 -332 -3 -333 -3
-55 -28 c-38 -19 -122 -91 -278 -237 l-223 -210 -575 0 -574 0 0 1035 0 1035
1185 0 1185 0 0 -794z m695 611 l470 -43 -3 -29 c-3 -31 -205 -1191 -223
-1282 l-10 -53 -380 0 -379 0 0 50 c0 41 3 50 18 50 9 0 121 -18 247 -40 127
-22 232 -40 236 -40 3 0 11 34 18 76 10 58 10 78 1 84 -6 4 -126 26 -266 50
l-254 44 0 588 0 588 28 -1 c15 0 239 -19 497 -42z m-3235 -551 l0 -574 -72
-12 c-283 -48 -498 -87 -504 -92 -9 -10 19 -158 30 -158 6 0 126 20 266 45
140 25 261 45 268 45 9 0 12 -66 12 -295 l0 -295 -365 0 -364 0 -6 33 c-161
892 -312 1753 -309 1757 4 3 930 110 1032 119 9 1 12 -120 12 -573z m3559
-1088 c0 -35 -33 -610 -72 -1278 l-72 -1215 -2057 -3 -2057 -2 -5 32 c-4 26
-146 2022 -146 2051 0 4 504 7 1121 7 l1121 0 234 220 c128 122 246 227 261
235 24 13 152 15 851 15 l822 0 -1 -62z"/>
<path d="M1612 4507 c-22 -23 -22 -24 -22 -511 l0 -487 25 -24 24 -25 491 0
491 0 24 25 25 24 0 486 0 486 -25 24 -24 25 -494 0 -494 0 -21 -23z m888
-512 l0 -375 -372 2 -373 3 -3 373 -2 372 375 0 375 0 0 -375z"/>
<path d="M2990 4280 l0 -80 305 0 305 0 0 80 0 80 -305 0 -305 0 0 -80z"/>
<path d="M2990 3830 l0 -80 305 0 305 0 0 80 0 80 -305 0 -305 0 0 -80z"/>
<path d="M1630 3070 l0 -80 505 0 505 0 0 80 0 80 -505 0 -505 0 0 -80z"/>
<path d="M4142 4223 c-26 -10 -41 -64 -82 -301 -45 -261 -45 -276 2 -305 20
-13 474 -97 521 -97 9 0 27 10 41 23 23 20 30 45 70 276 47 268 47 287 4 315
-13 8 -129 33 -258 56 -229 39 -272 44 -298 33z m274 -198 c76 -14 139 -25
140 -25 2 0 -49 -295 -51 -298 -2 -3 -299 48 -303 53 -2 1 9 66 23 143 14 77
25 143 25 146 0 10 18 8 166 -19z"/>
<path d="M650 4170 c-238 -42 -250 -48 -250 -119 0 -20 18 -132 40 -250 43
-236 54 -261 114 -261 17 0 134 18 260 40 231 40 258 49 271 91 11 32 -76 488
-98 515 -26 33 -71 31 -337 -16z m235 -270 c13 -74 23 -135 22 -135 -8 -5
-278 -47 -282 -44 -6 7 -48 259 -44 263 4 5 272 53 276 51 2 -1 14 -62 28
-135z"/>
<path d="M1712 1894 c-12 -8 -29 -29 -37 -45 -14 -27 -14 -60 5 -347 11 -174
23 -332 26 -351 3 -19 18 -47 34 -63 l28 -28 792 0 792 0 28 28 c16 16 31 44
34 63 3 19 15 177 26 351 19 287 19 320 5 347 -33 65 23 61 -885 61 -732 0
-828 -2 -848 -16z m1574 -196 c-3 -29 -10 -138 -16 -243 -6 -104 -13 -200 -16
-212 l-4 -23 -690 0 -690 0 -4 23 c-3 12 -10 108 -16 212 -6 105 -13 214 -16
243 l-6 52 732 0 732 0 -6 -52z"/>
<path d="M2070 1485 l0 -85 490 0 490 0 0 85 0 85 -490 0 -490 0 0 -85z"/>
</g>
</svg>
