<?xml version="1.0" standalone="no"?>
<!DOCTYPE svg PUBLIC "-//W3C//DTD SVG 20010904//EN"
 "http://www.w3.org/TR/2001/REC-SVG-20010904/DTD/svg10.dtd">
<svg version="1.0" xmlns="http://www.w3.org/2000/svg"
 width="512.000000pt" height="512.000000pt" viewBox="0 0 512.000000 512.000000"
 preserveAspectRatio="xMidYMid meet">

<g transform="translate(0.000000,512.000000) scale(0.100000,-0.100000)"
fill="#000000" stroke="none">
<path d="M2229 5104 c-62 -19 -134 -70 -170 -119 -41 -57 -685 -1617 -717
-1735 -24 -92 -25 -107 -32 -540 -6 -405 -9 -452 -28 -525 -38 -145 -93 -262
-180 -382 l-45 -62 -39 34 c-31 28 -46 35 -80 35 l-43 0 -443 -443 c-414 -414
-444 -446 -449 -484 -4 -35 -1 -44 23 -70 36 -38 1511 -813 1546 -813 14 0 43
13 64 29 46 34 484 475 508 511 25 38 20 84 -14 123 l-29 34 49 37 c130 99
285 293 366 458 21 43 41 78 44 78 3 0 23 -35 44 -77 81 -166 236 -360 366
-459 l49 -37 -29 -34 c-34 -39 -39 -85 -14 -123 24 -36 462 -477 508 -511 21
-16 50 -29 64 -29 37 0 1527 786 1553 819 16 20 20 35 16 65 -5 37 -40 74
-449 483 l-443 443 -43 0 c-34 0 -49 -7 -80 -35 l-39 -34 -45 62 c-95 130
-155 266 -188 426 -18 88 -20 137 -20 453 0 194 -5 392 -10 439 -13 117 -46
224 -125 412 -71 167 -87 187 -151 187 -35 0 -94 -59 -94 -94 0 -14 31 -101
70 -194 106 -256 101 -228 110 -742 6 -355 11 -459 24 -513 46 -196 127 -367
244 -521 l45 -58 -378 -379 -379 -378 -30 17 c-51 29 -219 204 -270 281 -91
137 -154 288 -188 451 -10 52 -13 261 -13 1038 l0 974 33 29 c45 40 107 41
149 2 26 -25 41 -69 126 -368 160 -562 149 -535 230 -535 50 0 97 43 97 90 0
29 -204 760 -237 848 -20 53 -84 127 -132 151 l-36 19 -119 470 c-90 358 -117
479 -112 505 13 68 94 120 161 103 58 -15 82 -53 181 -291 52 -126 102 -237
111 -247 20 -23 71 -32 105 -19 35 13 62 55 61 95 -2 41 -192 493 -227 539
-55 71 -169 127 -261 127 -57 0 -131 -23 -187 -59 l-48 -31 -47 31 c-91 57
-190 72 -284 43z m188 -226 c24 -25 36 -46 39 -74 3 -28 -28 -167 -114 -503
l-118 -464 -36 -18 c-47 -24 -111 -98 -131 -151 -33 -88 -237 -819 -237 -848
0 -47 47 -90 97 -90 81 0 70 -27 230 535 85 299 100 343 126 368 42 39 104 38
149 -2 l33 -29 3 -937 c2 -777 0 -952 -12 -1033 -44 -291 -192 -554 -416 -737
l-71 -58 -381 380 -381 381 45 58 c117 154 198 325 244 521 13 54 18 157 24
513 6 407 9 451 28 520 21 76 650 1605 678 1648 46 71 141 80 201 20z m209
-787 l62 -240 -31 -10 c-17 -6 -45 -23 -64 -37 l-33 -25 -33 25 c-19 14 -47
31 -64 37 l-31 10 62 240 c33 131 63 239 66 239 3 0 33 -108 66 -239z m-1194
-3008 l488 -488 -182 -182 c-101 -101 -186 -183 -191 -183 -6 0 -1264 657
-1277 667 -4 4 661 673 670 673 3 0 224 -219 492 -487z m3088 152 c184 -184
332 -336 330 -338 -14 -11 -1269 -667 -1276 -667 -5 0 -91 82 -191 182 l-183
183 487 487 c269 269 490 488 493 488 3 0 156 -151 340 -335z"/>
<path d="M3289 4101 c-88 -89 43 -219 138 -137 23 20 28 32 28 71 0 39 -5 51
-28 71 -41 35 -99 33 -138 -5z"/>
</g>
</svg>
