<?xml version="1.0" standalone="no"?>
<!DOCTYPE svg PUBLIC "-//W3C//DTD SVG 20010904//EN"
 "http://www.w3.org/TR/2001/REC-SVG-20010904/DTD/svg10.dtd">
<svg version="1.0" xmlns="http://www.w3.org/2000/svg"
 width="512.000000pt" height="512.000000pt" viewBox="0 0 512.000000 512.000000"
 preserveAspectRatio="xMidYMid meet">

<g transform="translate(0.000000,512.000000) scale(0.100000,-0.100000)"
fill="#000000" stroke="none">
<path d="M2965 5110 c-411 -64 -766 -351 -906 -732 -70 -188 -72 -208 -76
-790 l-5 -527 -57 39 c-151 103 -305 152 -486 153 -299 1 -558 -135 -720 -377
-110 -165 -149 -309 -142 -516 4 -117 9 -148 35 -230 59 -180 185 -347 338
-449 l75 -50 -53 -27 c-138 -70 -303 -214 -383 -335 -119 -177 -172 -347 -182
-581 l-6 -148 80 0 80 0 6 153 c5 161 21 238 72 352 72 164 228 331 383 409
28 14 54 26 57 26 3 0 5 -34 5 -76 0 -74 1 -78 35 -109 99 -94 413 -112 573
-34 76 37 92 64 92 154 0 36 3 65 8 65 4 0 41 -20 82 -44 195 -115 344 -313
401 -536 20 -77 22 -117 26 -412 l5 -328 -871 0 -871 0 0 110 0 110 -80 0 -80
0 0 -190 0 -190 2160 0 2160 0 0 270 0 270 -80 0 -80 0 0 -190 0 -190 -1055 0
-1055 0 0 313 c0 171 -5 341 -10 377 -50 314 -247 588 -533 745 l-68 37 66 45
c222 149 364 393 382 659 l6 92 61 40 c99 64 274 146 359 166 26 6 27 5 27
-34 0 -23 7 -54 15 -70 74 -143 586 -160 723 -24 28 28 32 39 32 84 0 52 0 52
28 45 60 -14 212 -80 294 -127 353 -200 595 -527 695 -938 25 -101 26 -119 30
-493 l5 -388 76 3 77 3 3 285 c4 400 -12 556 -80 770 -74 234 -202 443 -392
637 l-70 73 47 0 48 0 -4 848 c-3 835 -3 848 -25 929 -32 122 -77 231 -131
322 -166 275 -439 471 -747 536 -93 20 -314 28 -399 15z m420 -180 c345 -94
605 -361 703 -719 l26 -96 1 -750 0 -750 -69 -3 c-68 -3 -73 -1 -180 55 -61
31 -165 76 -231 98 l-120 41 -3 86 -3 86 84 56 c105 69 228 199 284 297 23 41
56 117 74 169 29 84 33 111 37 236 l4 140 -58 13 c-114 26 -185 80 -241 188
-40 75 -60 146 -74 264 l-12 95 -71 13 c-80 13 -69 20 -125 -79 -77 -135 -208
-249 -386 -336 -182 -88 -359 -129 -612 -141 l-142 -6 -7 -45 c-10 -66 2 -205
26 -296 54 -213 204 -415 387 -522 l63 -37 0 -91 0 -92 -72 -21 c-100 -30
-229 -85 -322 -138 -49 -28 -79 -39 -81 -32 -31 91 -62 163 -90 210 l-35 58 0
588 c0 653 3 689 64 852 49 131 118 240 216 339 147 151 305 239 511 285 98
22 350 14 454 -15z m114 -791 c39 -152 151 -298 275 -359 l67 -33 -6 -51 c-37
-296 -222 -523 -498 -611 -322 -103 -680 46 -837 347 -43 82 -80 207 -80 270
l0 38 48 0 c26 0 95 7 154 15 336 44 612 172 794 369 32 35 62 64 65 65 3 0
11 -22 18 -50z m-1856 -1073 c76 -25 158 -67 207 -105 l25 -20 -23 -24 c-13
-14 -56 -40 -95 -58 -68 -32 -78 -34 -182 -34 -100 0 -115 3 -166 27 -31 16
-63 36 -72 46 -14 15 -26 17 -81 11 -56 -5 -68 -11 -101 -43 -45 -45 -103 -72
-179 -81 -58 -8 -126 0 -126 14 0 20 119 135 185 180 133 89 254 123 420 117
85 -3 127 -9 188 -30z m1717 -300 l0 -163 -47 -14 c-62 -18 -312 -19 -370 -1
l-43 13 0 161 0 160 33 -6 c72 -15 302 -17 362 -3 33 8 61 15 63 16 1 0 2 -73
2 -163z m-1350 27 c35 -44 88 -163 104 -233 22 -93 20 -249 -4 -344 -51 -200
-185 -364 -375 -456 -103 -51 -187 -70 -306 -70 -196 0 -357 68 -499 210 -129
128 -194 271 -206 449 -6 84 10 208 35 273 9 24 12 26 48 17 57 -13 201 -11
258 5 57 15 126 48 171 83 l31 23 74 -34 c127 -60 272 -69 414 -25 62 19 165
76 200 110 25 25 29 24 55 -8z m-580 -1258 c47 0 111 4 143 8 l58 9 -3 -79 -3
-78 -55 -13 c-63 -15 -269 -11 -312 7 -27 10 -28 13 -28 86 l0 76 58 -8 c31
-4 95 -8 142 -8z"/>
<path d="M1040 710 l0 -80 75 0 75 0 0 80 0 80 -75 0 -75 0 0 -80z"/>
<path d="M1350 710 l0 -81 78 3 77 3 3 78 3 77 -81 0 -80 0 0 -80z"/>
<path d="M1662 713 l3 -78 75 0 75 0 3 78 3 77 -81 0 -81 0 3 -77z"/>
</g>
</svg>
